<svg width="160" height="34" viewBox="0 0 160 34" fill="none" xmlns="http://www.w3.org/2000/svg">
<path d="M17.1742 33.0981C22.5467 33.0981 26.51 31.0138 28.8439 28.1755L24.3522 24.3173C22.5467 26.3129 20.3008 27.3329 17.3063 27.3329C11.2293 27.3329 7.48615 22.7207 7.48615 17.0442C7.48615 11.3677 11.2293 6.66684 17.1742 6.66684C19.9485 6.66684 22.2384 7.64249 24.088 9.59379L28.4476 5.77988C25.6733 2.45379 22.1944 0.901616 17.1742 0.901616C7.6623 0.901616 1.10083 8.13031 1.10083 17.0442C1.10083 25.9138 8.01459 33.0981 17.1742 33.0981ZM40.0651 33.0981C44.1605 33.0981 46.2302 31.3686 47.4633 28.7521V32.5216H53.2321V9.46075H47.3311V13.0973C46.0981 10.6138 44.0284 8.97292 40.0651 8.97292C33.7678 8.97292 28.7477 14.4277 28.7477 21.0799C28.7477 27.7321 33.7678 33.0981 40.0651 33.0981ZM34.6926 21.0355C34.6926 17.4434 37.2467 14.3834 41.0339 14.3834C44.9532 14.3834 47.4633 17.4877 47.4633 21.0799C47.4633 24.6721 44.9532 27.6877 41.0339 27.6877C37.2467 27.6877 34.6926 24.539 34.6926 21.0355ZM56.7642 32.5216H62.7092V0.147705H56.7642V32.5216ZM69.3959 33.0981C71.6858 33.0981 73.3151 31.3242 73.3151 29.1955C73.3151 27.1112 71.6858 25.3373 69.3959 25.3373C67.106 25.3373 65.4326 27.1112 65.4326 29.1955C65.4326 31.3242 67.106 33.0981 69.3959 33.0981ZM86.0914 33.0981C90.5831 33.0981 93.7537 31.4573 95.9115 28.6634L91.5959 24.8938C90.407 26.4903 88.9097 27.6434 86.6198 27.6434C82.8326 27.6434 80.2345 24.5834 80.2345 20.9912C80.2345 17.399 82.7005 14.339 86.4877 14.339C88.5134 14.339 90.2748 15.359 91.3317 16.9555L95.9115 13.186C93.9739 10.4807 90.5831 8.83988 86.3996 8.88423C79.3978 8.92858 74.2895 14.2947 74.2895 20.9912C74.2895 27.6877 79.5299 33.0981 86.0914 33.0981ZM108.119 33.0981C115.209 33.0981 120.317 27.6877 120.317 21.0355C120.317 14.3834 115.209 8.92858 108.119 8.92858C101.029 8.92858 95.9208 14.3834 95.9208 21.0355C95.9208 27.6877 101.029 33.0981 108.119 33.0981ZM101.866 21.0355C101.866 17.4434 104.332 14.3834 108.119 14.3834C111.906 14.3834 114.372 17.4434 114.372 21.0355C114.372 24.6277 111.906 27.6434 108.119 27.6434C104.332 27.6434 101.866 24.6277 101.866 21.0355ZM122.948 32.5216H128.893V19.8825C128.893 15.8912 131.139 14.1616 133.649 14.1616C136.6 14.1616 138.581 15.8912 138.581 19.8825V32.5216H144.526V19.8825C144.526 15.4477 146.42 14.1616 149.195 14.1616C151.881 14.1616 153.775 15.8912 153.775 19.8825V32.5216H159.72V18.419C159.72 12.6094 155.932 8.92858 151 8.92858C146.993 8.92858 144.791 10.4807 143.249 13.2747C141.752 10.4807 139.022 8.92858 135.807 8.92858C132.284 8.92858 129.994 10.259 128.805 12.8312V9.46075H122.948V32.5216Z" fill="#A0AEC0"/>
</svg>
