<svg width="97" height="52" viewBox="0 0 97 52" fill="none" xmlns="http://www.w3.org/2000/svg">
<g clip-path="url(#clip0_159_5702)">
<path d="M31.688 34.5457H27.4348V51.666H31.688V34.5457Z" fill="#A0AEC0"/>
<path d="M65.9828 39.4515C65.8117 39.3612 64.4442 38.5374 62.4099 38.5374C59.6549 38.5374 57.7485 40.4819 57.7485 43.1038C57.7485 45.6477 59.5754 47.6744 62.4099 47.6744C64.4092 47.6744 65.7995 46.8684 65.9828 46.7657V51.3609C65.4546 51.5128 64.0037 51.9698 62.1041 51.9698C57.3228 51.9698 53.1289 48.6199 53.1289 43.1038C53.1289 37.9914 56.9281 34.2419 62.1041 34.2419C64.1061 34.2419 65.5826 34.7359 65.9828 34.8564V39.4515Z" fill="#A0AEC0"/>
<path d="M21.5872 39.4515C21.4161 39.3612 20.0487 38.5374 18.0144 38.5374C15.2593 38.5374 13.353 40.4819 13.353 43.1038C13.353 45.6477 15.1799 47.6744 18.0144 47.6744C20.0137 47.6744 21.404 46.8684 21.5872 46.7657V51.3609C21.0591 51.5128 19.6082 51.9698 17.7086 51.9698C12.9273 51.9698 8.7334 48.6199 8.7334 43.1038C8.7334 37.9914 12.5326 34.2419 17.7086 34.2419C19.7106 34.2419 21.1871 34.7359 21.5872 34.8564V39.4515Z" fill="#A0AEC0"/>
<path d="M79.3628 38.6015C76.8394 38.6015 74.9654 40.6185 74.9654 43.1036C74.9654 45.5941 76.8394 47.6098 79.3628 47.6098C81.8834 47.6098 83.7628 45.5941 83.7628 43.1036C83.7628 40.6185 81.8834 38.6015 79.3628 38.6015ZM88.2693 43.1036C88.2693 48.0012 84.5469 51.9696 79.3628 51.9696C74.1787 51.9696 70.4617 48.0012 70.4617 43.1036C70.4617 38.2142 74.1787 34.2417 79.3628 34.2417C84.5469 34.2417 88.2693 38.2142 88.2693 43.1036Z" fill="#A0AEC0"/>
<path d="M47.8175 38.4372C47.7542 38.4167 45.9637 37.9145 44.4926 37.9145C42.7883 37.9145 41.8614 38.4947 41.8614 39.3171C41.8614 40.3599 43.1117 40.7239 43.8109 40.9483L44.9843 41.3273C47.7448 42.2196 49.0031 44.1394 49.0031 46.2249C49.0031 50.5259 45.2793 51.9709 42.0245 51.9709C39.7625 51.9709 37.6433 51.5481 37.4345 51.5029V47.5632C37.809 47.659 39.5927 48.1995 41.4505 48.1995C43.567 48.1995 44.5397 47.5714 44.5397 46.6012C44.5397 45.7337 43.6977 45.2328 42.6428 44.8962C42.3855 44.8086 41.9989 44.6854 41.7348 44.5979C39.3664 43.837 37.3914 42.4234 37.3914 39.5894C37.3914 36.3873 39.7517 34.2375 43.6721 34.2375C45.7428 34.2375 47.6909 34.748 47.8175 34.7822V38.4372Z" fill="#A0AEC0"/>
<path d="M4.22354 16.1468C4.22354 14.9673 3.2751 14.0107 2.11244 14.0107C0.949792 14.0107 0 14.9673 0 16.1468V20.6407C0 21.8272 0.949792 22.7851 2.11244 22.7851C3.2751 22.7851 4.22354 21.8272 4.22354 20.6407V16.1468Z" fill="#A0AEC0"/>
<path d="M15.8222 10.2482C15.8222 9.06864 14.8737 8.10938 13.7111 8.10938C12.5471 8.10938 11.5986 9.06864 11.5986 10.2482V20.6414C11.5986 21.8278 12.5471 22.7843 13.7111 22.7843C14.8737 22.7843 15.8222 21.8278 15.8222 20.6414V10.2482Z" fill="#A0AEC0"/>
<path d="M27.4211 2.178C27.4211 0.998422 26.4726 0.0405273 25.31 0.0405273C24.146 0.0405273 23.1975 0.998422 23.1975 2.178V24.9116C23.1975 26.098 24.146 27.0559 25.31 27.0559C26.4726 27.0559 27.4211 26.098 27.4211 24.9116V2.178Z" fill="#A0AEC0"/>
<path d="M39.0197 10.2482C39.0197 9.06864 38.0712 8.10938 36.9086 8.10938C35.7446 8.10938 34.7961 9.06864 34.7961 10.2482V20.6414C34.7961 21.8278 35.7446 22.7843 36.9086 22.7843C38.0712 22.7843 39.0197 21.8278 39.0197 20.6414V10.2482Z" fill="#A0AEC0"/>
<path d="M50.6053 16.1468C50.6053 14.9673 49.6636 14.0107 48.5064 14.0107C47.3437 14.0107 46.3953 14.9673 46.3953 16.1468V20.6407C46.3953 21.8272 47.3437 22.7851 48.5064 22.7851C49.6636 22.7851 50.6053 21.8272 50.6053 20.6407V16.1468Z" fill="#A0AEC0"/>
<path d="M50.6107 16.1468C50.6107 14.9673 49.6623 14.0107 48.4997 14.0107C47.337 14.0107 46.3872 14.9673 46.3872 16.1468V20.6407C46.3872 21.8272 47.337 22.7851 48.4997 22.7851C49.6623 22.7851 50.6107 21.8272 50.6107 20.6407V16.1468Z" fill="#A0AEC0"/>
<path d="M62.2094 10.2482C62.2094 9.06864 61.2609 8.10938 60.0983 8.10938C58.9343 8.10938 57.9858 9.06864 57.9858 10.2482V20.6414C57.9858 21.8278 58.9343 22.7843 60.0983 22.7843C61.2609 22.7843 62.2094 21.8278 62.2094 20.6414V10.2482Z" fill="#A0AEC0"/>
<path d="M73.8083 2.178C73.8083 0.998422 72.8598 0.0405273 71.6972 0.0405273C70.5332 0.0405273 69.5847 0.998422 69.5847 2.178V24.9116C69.5847 26.098 70.5332 27.0559 71.6972 27.0559C72.8598 27.0559 73.8083 26.098 73.8083 24.9116V2.178Z" fill="#A0AEC0"/>
<path d="M85.4069 10.2482C85.4069 9.06864 84.4584 8.10938 83.2958 8.10938C82.1318 8.10938 81.1833 9.06864 81.1833 10.2482V20.6414C81.1833 21.8278 82.1318 22.7843 83.2958 22.7843C84.4584 22.7843 85.4069 21.8278 85.4069 20.6414V10.2482Z" fill="#A0AEC0"/>
<path d="M96.9925 16.1468C96.9925 14.9673 96.0508 14.0107 94.8936 14.0107C93.7309 14.0107 92.7825 14.9673 92.7825 16.1468V20.6407C92.7825 21.8272 93.7309 22.7851 94.8936 22.7851C96.0508 22.7851 96.9925 21.8272 96.9925 20.6407V16.1468Z" fill="#A0AEC0"/>
<path d="M94.5663 49.4111V49.6793H93.8146V51.6649H93.506V49.6793H92.7502V49.4111H94.5663Z" fill="#A0AEC0"/>
<path d="M94.7241 49.4111H95.2078L95.872 51.2599H95.8827L96.5254 49.4111H96.9996V51.6649H96.683V49.8176H96.6722L95.9986 51.6649H95.7063L95.0488 49.8176H95.034V51.6649H94.7241V49.4111Z" fill="#A0AEC0"/>
</g>
<defs>
<clipPath id="clip0_159_5702">
<rect width="97" height="52" fill="white"/>
</clipPath>
</defs>
</svg>
