<svg width="160" height="31" viewBox="0 0 160 31" fill="none" xmlns="http://www.w3.org/2000/svg">
<g clip-path="url(#clip0_159_5686)">
<path d="M20.5918 3.20483C19.7876 2.75085 17.4823 3.03155 14.7136 3.90322C9.8679 7.27193 5.77827 12.2349 5.49288 20.2046C5.44092 20.3951 4.96298 20.1787 4.86845 20.1197C3.55993 17.5689 3.04152 14.883 4.1341 11.0082C4.33775 10.6634 3.67195 10.2389 3.55224 10.3601C3.31242 10.6045 2.31267 11.6876 1.64866 12.859C-1.64267 18.6659 0.509719 26.1064 6.2681 29.3626C12.0253 32.6239 19.2953 30.5202 22.5009 24.6631C26.2094 17.9029 22.7659 4.43983 20.5919 3.20503L20.5918 3.20483Z" fill="#A0AEC0"/>
<path d="M41.1994 6.44922C34.3731 6.44922 29.4182 11.6106 29.4182 18.722C29.4182 25.8917 34.3602 30.8992 41.4372 30.8992C45.0118 30.8992 47.8419 29.7624 50.0926 27.4222C50.7648 26.6839 50.8371 25.9725 50.8371 25.7006C50.8371 24.5413 49.9895 23.6992 48.8216 23.6992C48.2329 23.6992 47.7405 23.9253 47.1757 24.4564C45.9012 25.6642 44.2229 26.898 41.4372 26.898C37.5635 26.898 34.4132 23.94 34.2147 20.1415H49.6322C51.3087 20.1415 52.1231 19.3444 52.1231 17.7051C52.1231 17.2224 52.1231 16.8742 52.0277 16.187C51.1971 10.0899 47.1496 6.45003 41.1998 6.45003L41.1994 6.44922ZM41.1994 10.2564C44.9009 10.2564 47.2761 12.6555 47.4226 16.5277H34.2195C34.5662 12.944 37.5453 10.2564 41.1992 10.2564H41.1994Z" fill="#A0AEC0"/>
<path d="M66.8451 6.44922C63.7441 6.44922 60.6738 8.26269 59.4743 10.7814V9.22482C59.4743 6.81346 57.6368 6.6913 57.2688 6.6913C56.18 6.6913 55.0164 7.35677 55.0164 9.22482V28.0252C55.0164 30.5293 56.9723 30.6558 57.3642 30.6558C57.7561 30.6558 59.7129 30.5293 59.7129 28.0252V17.9469C59.7129 13.5617 62.1562 10.4989 65.6542 10.4989C69.0422 10.4989 70.6898 12.7603 70.6898 17.4131V28.0252C70.6898 30.5293 72.6466 30.6558 73.0385 30.6558C73.4304 30.6558 75.3864 30.5293 75.3864 28.0252V15.913C75.3864 11.3382 73.1425 6.45064 66.8451 6.45064V6.44922Z" fill="#A0AEC0"/>
<path d="M96.6365 6.69165C95.5512 6.69165 94.7641 7.33547 94.2954 8.60218L87.8698 25.0356L81.4933 8.60218C80.9941 7.31647 80.2129 6.69165 79.1045 6.69165C77.8097 6.69165 76.7559 7.71922 76.7559 8.98258C76.7559 9.29529 76.7907 9.70079 77.0506 10.3341L84.435 28.0675C85.315 30.2067 86.7624 30.6556 87.8221 30.6556C88.8811 30.6556 90.3293 30.2068 91.211 28.0685L98.6434 10.2366C98.8974 9.61105 98.9366 9.15179 98.9366 8.93441C98.9366 7.65642 97.9467 6.69196 96.6365 6.69196V6.69165Z" fill="#A0AEC0"/>
<path d="M110.288 6.44922C107.284 6.44922 104.487 7.30006 102.412 8.8432C101.708 9.33702 101.365 9.95309 101.365 10.7277C101.365 11.7943 102.166 12.6304 103.19 12.6304C103.633 12.6304 104.129 12.451 104.584 12.1269C106.368 10.9175 108.044 10.3534 109.859 10.3534C113.331 10.3534 115.325 12.1495 115.325 15.2817V15.8007C107.53 15.8094 99.6016 16.7668 99.6016 23.6637C99.6016 28.6275 103.772 30.8499 107.906 30.8499C111.198 30.8499 113.827 29.5233 115.513 27.0115V28.2193C115.513 30.0181 116.701 30.6559 117.72 30.6559C117.935 30.6559 119.829 30.5874 119.829 28.2193V15.5716C119.829 9.85827 116.262 6.448 110.288 6.448L110.288 6.44922ZM114.337 19.3175H115.325V20.4179C115.325 24.4425 112.805 27.0427 108.907 27.0427C107.849 27.0427 104.395 26.7923 104.395 23.5665C104.395 19.7577 110.069 19.3175 114.337 19.3175Z" fill="#A0AEC0"/>
<path d="M132.062 11.0318C134.117 11.0318 134.221 9.40549 134.221 9.07967C134.221 8.11267 133.653 7.079 132.062 7.079H127.836V2.73213C127.836 0.790404 126.598 0.101562 125.536 0.101562C125.144 0.101562 123.188 0.228091 123.188 2.73213V23.374C123.188 28.1377 125.499 30.6555 129.871 30.6555C131.002 30.6555 132.105 30.4518 132.825 30.1105C133.652 29.6912 134.125 29.0015 134.125 28.2191C134.125 27.1153 133.338 26.3147 132.253 26.3147C132.043 26.3147 131.745 26.3676 131.416 26.4637C131.014 26.5661 130.741 26.6058 130.443 26.6058C128.665 26.6058 127.836 25.4249 127.836 22.8888V11.0297H132.062V11.0318Z" fill="#A0AEC0"/>
<path d="M147.59 6.44922C140.487 6.44922 135.333 11.5699 135.333 18.6244C135.333 22.0591 136.582 25.1895 138.848 27.4386C141.097 29.6697 144.202 30.8984 147.59 30.8984C154.605 30.8984 159.895 25.6218 159.895 18.6246C159.895 11.57 154.719 6.44942 147.59 6.44942L147.59 6.44922ZM147.59 26.8483C142.719 26.8483 140.172 22.7109 140.172 18.6239C140.172 13.0077 144.017 10.45 147.59 10.45C151.163 10.45 155.008 13.0077 155.008 18.6239C155.008 24.2749 151.163 26.8483 147.59 26.8483Z" fill="#A0AEC0"/>
</g>
<defs>
<clipPath id="clip0_159_5686">
<rect width="160" height="31" fill="white"/>
</clipPath>
</defs>
</svg>
