<svg width="117" height="48" viewBox="0 0 117 48" fill="none" xmlns="http://www.w3.org/2000/svg">
<g clip-path="url(#clip0_159_5694)">
<path fill-rule="evenodd" clip-rule="evenodd" d="M1.01898 5.62248L1.01807 5.56572V1.02278H5.43807V34.3432L5.43991 34.4471V38.9429H1.01807V34.3999L1.01898 34.3432V5.62248Z" fill="#A0AEC0"/>
<path fill-rule="evenodd" clip-rule="evenodd" d="M45.9628 25.1332C46.0763 32.0251 50.2337 37.5366 55.2492 37.4443C60.2638 37.3519 64.2364 31.6903 64.1229 24.7985C64.0085 17.9056 59.8511 12.3941 54.8356 12.4874C49.821 12.5797 45.8484 18.2414 45.9628 25.1332ZM82.5597 16.8005C82.6751 17.0631 82.4013 16.408 82.4013 16.408L82.5597 16.8005ZM85.5721 45.3326C85.7746 44.9767 86.0569 44.4323 86.3927 43.7523L85.5721 45.3326ZM85.8318 14.4227C85.8853 14.5756 85.9472 14.7353 86.0166 14.9036L87.5049 18.6636L85.8318 14.4227ZM67.3115 33.3505C70.0434 35.9091 72.5034 37.2317 75.6489 37.2317C78.8685 37.2567 81.7307 35.6321 81.7307 32.505C81.7307 29.8955 79.4883 28.369 75.4819 26.6212C72.087 25.1053 69.5605 24.0424 68.24 21.8484C68.4013 22.8016 68.4857 23.7866 68.4857 24.7946C68.4857 33.2582 62.5361 40.1202 55.1966 40.1202C47.8572 40.1202 41.9076 33.2582 41.9076 24.7946C41.9076 19.6919 44.0702 15.172 47.3948 12.3864H38.402V34.3432L38.4029 34.4307V38.9429H34.4087V34.5779C34.4115 34.5009 34.4124 34.423 34.4124 34.3432V12.3864H30.8909V9.62292H34.464C34.9254 4.04788 38.2725 0.894844 42.9064 0.894844C45.9112 0.894844 47.5608 1.21804 48.5137 1.67301V5.45222C48.4987 5.73406 48.4987 5.90623 48.4987 5.90623C48.4574 5.90142 48.3589 5.89949 48.3589 5.89949C46.9128 4.52305 45.4863 3.49865 42.1542 3.50249C39.5002 3.50249 37.7446 5.72732 38.3579 9.62292H53.3069C53.925 9.52193 54.5551 9.46902 55.1966 9.46902C60.5207 9.46902 65.1142 13.0799 67.2347 18.2952C67.215 18.0057 67.2056 17.7037 67.2056 17.3882C67.2056 11.9468 72.3102 9.63255 77.6127 9.64409C77.8153 9.64313 78.0141 9.64408 78.2091 9.64889C80.0754 9.61811 82.7342 10.2462 84.3576 10.6868L87.5049 18.6636L92.0028 29.983L92.5307 31.8009L93.1188 29.983L98.8067 15.4538C99.8562 11.4534 104.01 9.72199 108.598 9.73161C110.878 9.72103 112.563 10.0048 114.583 10.7377V15.1316C112.096 13.2665 110.315 12.1825 107.493 12.1825C105.012 12.1825 102.031 13.3156 102.031 17.0823C101.983 19.9131 103.629 20.4306 108.459 22.9036C112.429 24.6821 116.091 26.6453 116.113 31.1921C116.113 38.7726 108.874 40.0856 105.351 40.0971C102.205 40.0971 99.3225 39.2959 97.7188 37.9194V32.9148L97.9767 33.1351C100.838 35.8918 103.366 37.3202 106.634 37.3202C109.854 37.3452 112.716 35.7196 112.716 32.5926C112.716 29.983 110.473 28.4565 106.467 26.7088C102.638 24.9985 100.125 23.8654 99.0984 21.0327C97.5369 24.962 90.2734 43.2136 88.5637 47.115H84.6473L86.4198 43.7003C87.4018 41.7054 88.83 38.5754 90.0989 35.5811L82.5597 16.8005C82.5091 16.686 82.3853 16.3974 82.133 15.8059C81.5544 14.4458 81.0161 13.1896 79.388 12.5567C78.5158 12.2537 77.5874 12.0949 76.5079 12.0949C74.0274 12.0949 70.8547 13.228 70.8547 16.9948C70.8069 19.8256 72.6431 20.3431 77.4739 22.8151C81.4437 24.5945 85.106 26.5577 85.1275 31.1045C85.1275 38.6851 77.8884 39.9971 74.365 40.0096C71.5684 40.0096 68.9781 39.3757 67.3115 38.2676V33.3505Z" fill="#A0AEC0"/>
<path fill-rule="evenodd" clip-rule="evenodd" d="M13.6863 9.90578L13.735 13.2223L13.7322 13.4455L13.7753 13.4445C13.8269 13.306 13.8964 13.1887 13.962 13.1011C15.5854 11.3053 17.6317 9.52102 22.4953 9.52102C27.1507 9.52102 30.1639 13.6023 30.2849 16.1714L30.2896 34.3432V34.4337V38.9429H26.3001V33.5247L26.2991 18.0548C26.2991 14.8517 23.5747 12.5355 20.2398 12.5355C17.4676 12.5355 13.9095 15.1095 13.7913 17.7153V34.348L13.7932 34.4702V38.9468H9.80176V13.7244L9.80273 9.90578H13.6863Z" fill="#A0AEC0"/>
</g>
<defs>
<clipPath id="clip0_159_5694">
<rect width="117" height="48" fill="white"/>
</clipPath>
</defs>
</svg>
