<svg width="160" height="34" viewBox="0 0 160 34" fill="none" xmlns="http://www.w3.org/2000/svg">
<g clip-path="url(#clip0_157_5673)">
<path d="M66.5402 6.79993V27.1999H62.9857V11.1916H62.9383L56.5876 27.1999H54.2179L47.725 11.1916H47.6776V27.1999H44.4075V6.79993H49.526L55.4027 21.911H55.4975L61.706 6.79993H66.5402ZM69.4786 8.35826C69.4786 7.7916 69.6681 7.31937 70.0947 6.9416C70.5212 6.56382 70.9951 6.37493 71.5639 6.37493C72.18 6.37493 72.7013 6.56382 73.0805 6.9416C73.4596 7.31937 73.6966 7.7916 73.6966 8.35826C73.6966 8.92493 73.507 9.39715 73.0805 9.77493C72.6539 10.1527 72.18 10.3416 71.5639 10.3416C70.9478 10.3416 70.4738 10.1527 70.0947 9.77493C69.7155 9.34993 69.4786 8.87771 69.4786 8.35826ZM73.3174 12.561V27.1999H69.8577V12.561H73.3174ZM83.7914 24.6972C84.3127 24.6972 84.8814 24.6027 85.4975 24.3194C86.1136 24.0833 86.6824 23.7527 87.2037 23.3749V26.586C86.635 26.9166 86.0188 27.1527 85.3079 27.2944C84.597 27.436 83.8388 27.5305 82.9857 27.5305C80.8056 27.5305 79.052 26.8694 77.725 25.4999C76.3506 24.1305 75.6871 22.3833 75.6871 20.3055C75.6871 17.9444 76.398 16.0083 77.7724 14.4972C79.1468 12.986 81.0899 12.2305 83.6492 12.2305C84.3127 12.2305 84.9762 12.3249 85.5923 12.4666C86.2558 12.6083 86.7771 12.8444 87.1563 13.0333V16.3388C86.635 15.961 86.0662 15.6305 85.5449 15.4416C84.9762 15.2527 84.4075 15.111 83.8387 15.111C82.4643 15.111 81.3743 15.536 80.5212 16.4333C79.6681 17.3305 79.289 18.511 79.289 20.0222C79.289 21.486 79.7155 22.6666 80.5212 23.4694C81.3269 24.2722 82.417 24.6972 83.7914 24.6972ZM97.0141 12.3249C97.2985 12.3249 97.5354 12.3249 97.7724 12.3722C98.0094 12.4194 98.1989 12.4666 98.3411 12.5138V16.0083C98.1515 15.8666 97.9146 15.7249 97.5354 15.6305C97.1563 15.536 96.7771 15.4416 96.2558 15.4416C95.4027 15.4416 94.6918 15.8194 94.1231 16.5277C93.5544 17.236 93.2226 18.3222 93.2226 19.8333V27.1999H89.7629V12.561H93.2226V14.8749H93.27C93.6018 14.0722 94.0757 13.4583 94.6918 12.986C95.3553 12.561 96.1136 12.3249 97.0141 12.3249ZM98.5307 20.1166C98.5307 17.7083 99.2416 15.7722 100.569 14.3555C101.943 12.9388 103.839 12.2305 106.256 12.2305C108.531 12.2305 110.332 12.8916 111.611 14.261C112.891 15.6305 113.554 17.4722 113.554 19.786C113.554 22.1472 112.843 24.036 111.516 25.4527C110.142 26.8694 108.294 27.5777 105.924 27.5777C103.649 27.5777 101.848 26.9166 100.521 25.5944C99.1942 24.2249 98.5307 22.3833 98.5307 20.1166ZM102.133 19.9749C102.133 21.486 102.464 22.6666 103.175 23.4694C103.886 24.2722 104.881 24.6972 106.161 24.6972C107.393 24.6972 108.389 24.3194 109.052 23.4694C109.716 22.6666 110.047 21.486 110.047 19.8805C110.047 18.3222 109.716 17.1416 109.052 16.2916C108.389 15.4888 107.393 15.0638 106.208 15.0638C104.929 15.0638 103.981 15.4888 103.27 16.3388C102.464 17.236 102.133 18.4166 102.133 19.9749ZM118.72 16.4333C118.72 16.9055 118.862 17.3305 119.194 17.6138C119.526 17.8972 120.189 18.2277 121.28 18.6527C122.654 19.2194 123.649 19.8333 124.171 20.4944C124.739 21.2027 125.024 22.0055 125.024 22.9972C125.024 24.3666 124.502 25.4527 123.412 26.3027C122.37 27.1527 120.9 27.5305 119.099 27.5305C118.483 27.5305 117.82 27.436 117.062 27.2944C116.303 27.1527 115.687 26.9638 115.166 26.7277V23.3277C115.782 23.7527 116.493 24.1305 117.204 24.3666C117.915 24.6027 118.578 24.7444 119.194 24.7444C119.952 24.7444 120.569 24.6499 120.9 24.4138C121.28 24.1777 121.469 23.8472 121.469 23.3277C121.469 22.8555 121.28 22.4777 120.9 22.0999C120.521 21.7694 119.763 21.3916 118.72 20.9666C117.441 20.4472 116.54 19.8333 116.019 19.1722C115.498 18.511 115.213 17.661 115.213 16.6222C115.213 15.2999 115.734 14.2138 116.777 13.3638C117.82 12.5138 119.194 12.0888 120.853 12.0888C121.374 12.0888 121.943 12.136 122.559 12.2777C123.175 12.4194 123.744 12.561 124.171 12.7027V16.0555C123.697 15.7722 123.175 15.4888 122.559 15.2527C121.943 15.0166 121.327 14.9222 120.758 14.9222C120.095 14.9222 119.573 15.0638 119.242 15.2999C118.91 15.6305 118.72 15.961 118.72 16.4333ZM126.493 20.1166C126.493 17.7083 127.204 15.7722 128.531 14.3555C129.905 12.9388 131.801 12.2305 134.218 12.2305C136.493 12.2305 138.294 12.8916 139.573 14.261C140.853 15.6305 141.516 17.4722 141.516 19.786C141.516 22.1472 140.806 24.036 139.479 25.4527C138.104 26.8694 136.256 27.5777 133.886 27.5777C131.611 27.5777 129.81 26.9166 128.483 25.5944C127.204 24.2249 126.493 22.3833 126.493 20.1166ZM130.095 19.9749C130.095 21.486 130.426 22.6666 131.137 23.4694C131.848 24.2722 132.843 24.6972 134.123 24.6972C135.355 24.6972 136.351 24.3194 137.014 23.4694C137.678 22.6666 138.009 21.486 138.009 19.8805C138.009 18.3222 137.678 17.1416 137.014 16.2916C136.351 15.4888 135.355 15.0638 134.171 15.0638C132.891 15.0638 131.943 15.4888 131.232 16.3388C130.474 17.236 130.095 18.4166 130.095 19.9749ZM153.033 15.3944H147.867V27.1999H144.36V15.3944H141.896V12.561H144.36V10.5305C144.36 9.01937 144.881 7.74437 145.877 6.75271C146.872 5.76104 148.152 5.28882 149.716 5.28882C150.142 5.28882 150.521 5.33604 150.853 5.33604C151.185 5.33604 151.469 5.43049 151.706 5.52493V8.49993C151.611 8.45271 151.374 8.35826 151.09 8.26382C150.806 8.16937 150.474 8.12215 150.095 8.12215C149.384 8.12215 148.815 8.35826 148.436 8.78326C148.057 9.20826 147.867 9.9166 147.867 10.7666V12.5138H153.033V9.20826L156.493 8.16937V12.5138H160V15.3472H156.493V22.1944C156.493 23.0916 156.682 23.7055 156.967 24.0833C157.298 24.461 157.82 24.6499 158.531 24.6499C158.72 24.6499 158.957 24.6027 159.242 24.5083C159.526 24.4138 159.763 24.3194 159.952 24.1777V27.011C159.716 27.1527 159.384 27.2472 158.862 27.3416C158.341 27.436 157.867 27.4833 157.346 27.4833C155.877 27.4833 154.787 27.1055 154.076 26.3499C153.365 25.5944 152.986 24.4138 152.986 22.8555L153.033 15.3944Z" fill="#A0AEC0"/>
<path d="M16.2085 0H0V16.15H16.2085V0Z" fill="#A0AEC0"/>
<path d="M34.1233 0H17.9148V16.15H34.1233V0Z" fill="#A0AEC0"/>
<path d="M16.2085 17.8501H0V34.0001H16.2085V17.8501Z" fill="#A0AEC0"/>
<path d="M34.1233 17.8501H17.9148V34.0001H34.1233V17.8501Z" fill="#A0AEC0"/>
</g>
<defs>
<clipPath id="clip0_157_5673">
<rect width="160" height="34" fill="white"/>
</clipPath>
</defs>
</svg>
