<svg width="161" height="26" viewBox="0 0 161 26" fill="none" xmlns="http://www.w3.org/2000/svg">
<g clip-path="url(#clip0_157_5670)">
<path d="M6.44 6.96461C6.44 6.33146 6.44 6.33146 6.44 5.69831C6.44 5.06517 7.084 4.43202 8.372 4.43202C9.66 4.43202 10.304 5.06517 10.304 6.33146V7.59775H16.1V5.69831C16.1 0.633146 11.592 0 8.372 0C4.508 0 0.644 1.26629 0.644 5.06517C0.644 6.33146 0.644 6.96461 0.644 8.2309C1.932 12.6629 9.66 13.9292 10.948 17.0949C10.948 17.7281 10.948 18.3612 10.948 18.9944C10.948 19.6275 10.304 20.2607 9.016 20.2607C7.728 20.2607 6.44 19.6275 6.44 18.3612V16.4618H0V18.3612C0 23.4264 3.864 24.6927 8.372 24.6927C12.236 24.6927 16.1 23.4264 16.744 19.6275C16.744 17.7281 16.744 16.4618 16.744 15.8287C15.456 11.3966 7.084 10.1303 6.44 6.96461ZM81.144 6.96461C81.144 6.33146 81.144 6.33146 81.144 5.69831C81.144 5.06517 81.788 4.43202 83.076 4.43202C84.364 4.43202 85.008 5.06517 85.008 6.33146V7.59775H90.804V6.33146C90.804 1.26629 86.296 0.633146 83.076 0.633146C79.212 0.633146 75.992 1.89944 75.348 5.69831C75.348 6.96461 75.348 7.59775 75.348 8.86404C76.636 13.2961 84.364 14.5624 85.652 17.7281C85.652 18.3612 85.652 18.9944 85.652 19.6275C85.652 20.2607 85.008 20.8938 83.72 20.8938C82.432 20.8938 81.144 20.2607 81.144 18.9944V17.0949H75.348V18.9944C75.348 24.0595 79.212 25.3258 83.72 25.3258C87.584 25.3258 91.448 24.0595 91.448 20.2607C91.448 18.3612 91.448 17.0949 91.448 16.4618C90.16 11.3966 81.788 10.1303 81.144 6.96461ZM133.308 19.6275L128.156 1.26629H119.784V23.4264H125.58L124.936 4.43202L130.732 23.4264H139.104V1.26629H133.308V19.6275ZM25.116 1.26629L20.608 24.0595H27.048L30.268 3.16573L33.488 24.0595H39.928L35.42 1.26629H25.116ZM59.248 1.26629L56.028 18.9944L53.452 1.26629H43.792L43.148 24.0595H48.944V3.16573L52.808 24.0595H58.604L62.468 3.16573V24.0595H68.264L67.62 1.26629H59.248ZM112.7 1.26629H106.904V17.7281V18.3612C106.904 18.9944 106.26 20.2607 104.972 20.2607C103.684 20.2607 103.04 18.9944 103.04 18.3612V17.7281V1.26629H97.244V17.7281C97.244 18.3612 97.244 18.9944 97.244 18.9944C97.888 23.4264 101.108 24.6927 104.972 24.6927C109.48 24.6927 112.7 23.4264 112.7 18.9944V17.7281V1.26629ZM152.628 11.3966V14.5624H155.204V17.7281V18.3612C155.204 18.9944 154.56 20.2607 152.628 20.2607C150.696 20.2607 150.696 18.9944 150.052 18.3612V17.7281V7.59775C150.052 6.96461 150.052 6.96461 150.052 6.33146C150.052 5.69831 150.696 4.43202 152.628 4.43202C154.56 4.43202 154.56 5.69831 155.204 6.33146C155.204 6.96461 155.204 6.96461 155.204 6.96461V8.2309H161V7.59775C161 7.59775 161 6.96461 161 6.33146C160.356 1.89944 157.136 0.633146 152.628 0.633146C148.764 0.633146 144.9 1.89944 144.256 6.33146C144.256 6.96461 144.256 7.59775 144.256 7.59775V17.0949C144.256 17.7281 144.256 17.7281 144.256 18.3612C144.9 22.7933 148.12 24.0595 152.628 24.0595C156.492 24.0595 160.356 22.7933 161 18.3612C161 17.7281 161 17.0949 161 17.0949V10.7635H152.628V11.3966Z" fill="#A0AEC0"/>
</g>
<defs>
<clipPath id="clip0_157_5670">
<rect width="161" height="25.3258" fill="white"/>
</clipPath>
</defs>
</svg>
