<svg width="255" height="60" viewBox="0 0 255 60" fill="none" xmlns="http://www.w3.org/2000/svg">
<path d="M0 58.4046V0.92583H24.171C28.11 0.92583 31.4862 1.59449 34.2998 2.9318C37.1133 4.26912 39.2619 6.19794 40.7454 8.71826C42.2289 11.1871 42.9706 14.1961 42.9706 17.7451C42.9706 20.2655 42.28 22.6829 40.8988 24.9975C39.5176 27.2606 37.2412 29.1637 34.0696 30.7068V24.8432C37.0877 26.0262 39.4153 27.4407 41.0523 29.0866C42.6893 30.7325 43.8147 32.5327 44.4286 34.4873C45.0424 36.3904 45.3494 38.3964 45.3494 40.5052C45.3494 46.1631 43.4822 50.5608 39.7478 53.6983C36.0135 56.8359 30.8212 58.4046 24.171 58.4046H0ZM11.8937 47.989H25.5522C27.9565 47.989 29.8748 47.2946 31.3072 45.9059C32.7395 44.5171 33.4557 42.7169 33.4557 40.5052C33.4557 38.2421 32.7395 36.4161 31.3072 35.0274C29.8748 33.6386 27.9565 32.9442 25.5522 32.9442H11.8937V47.989ZM11.8937 22.5286H25.015C26.8566 22.5286 28.3146 22.0143 29.3888 20.9856C30.5143 19.9054 31.077 18.4909 31.077 16.7421C31.077 14.9934 30.5143 13.6046 29.3888 12.5759C28.3146 11.4958 26.8566 10.9557 25.015 10.9557H11.8937V22.5286Z" fill="white"/>
<path d="M52.9789 58.4046V0.92583H64.8726V47.989H89.0436V58.4046H52.9789Z" fill="white"/>
<path d="M90.7221 58.4046L110.059 0.92583H125.866L145.203 58.4046H132.235L128.398 46.6774H107.45L103.613 58.4046H90.7221ZM110.749 36.2618H125.099L116.351 9.10402H119.574L110.749 36.2618Z" fill="white"/>
<path d="M175.984 59.3305C171.892 59.3305 168.081 58.5847 164.551 57.093C161.072 55.6014 158.029 53.5183 155.42 50.8437C152.811 48.169 150.764 45.0315 149.281 41.431C147.849 37.8306 147.132 33.8958 147.132 29.6267C147.132 25.3575 147.849 21.4227 149.281 17.8223C150.713 14.1704 152.734 11.0328 155.343 8.40965C157.952 5.73502 160.996 3.67761 164.474 2.23743C168.004 0.74581 171.841 0 175.984 0C180.128 0 183.837 0.694375 187.11 2.08313C190.436 3.47188 193.249 5.32354 195.551 7.63812C197.853 9.9527 199.49 12.5245 200.462 15.3534L189.95 20.4455C188.978 17.668 187.264 15.3791 184.808 13.5789C182.404 11.7272 179.463 10.8014 175.984 10.8014C172.608 10.8014 169.641 11.5986 167.083 13.1931C164.525 14.7876 162.53 16.9993 161.098 19.8283C159.717 22.6058 159.026 25.8719 159.026 29.6267C159.026 33.3814 159.717 36.6733 161.098 39.5022C162.53 42.3311 164.525 44.5429 167.083 46.1374C169.641 47.7318 172.608 48.5291 175.984 48.5291C179.463 48.5291 182.404 47.629 184.808 45.8287C187.264 43.9771 188.978 41.6625 189.95 38.885L200.462 43.9771C199.49 46.806 197.853 49.3778 195.551 51.6923C193.249 54.0069 190.436 55.8586 187.11 57.2473C183.837 58.6361 180.128 59.3305 175.984 59.3305Z" fill="white"/>
<path d="M208.094 58.4046V0.92583H219.988V29.7038L216.688 28.5465L239.555 0.92583H254.441L231.805 28.3922L232.495 19.9054L254.901 58.4046H241.013L227.047 34.1015L219.988 42.6655V58.4046H208.094Z" fill="white"/>
</svg>
