<svg width="40" height="40" fill="none" xmlns="http://www.w3.org/2000/svg"><path d="M20.04 38.458 19.874 33l-1.792-.042c-4.083-.333-7.52-2.02-10.312-5.062-2.792-3.042-4.188-6.618-4.188-10.73 0-4.36 1.549-8.076 4.646-11.145 3.097-3.07 6.84-4.604 11.229-4.604 2.167 0 4.18.395 6.042 1.187a14.872 14.872 0 0 1 4.854 3.292c1.375 1.402 2.458 3.062 3.25 4.979.791 1.916 1.187 4 1.187 6.25 0 4.333-1.382 8.375-4.145 12.125-2.764 3.75-6.3 6.82-10.605 9.208Zm-.541-11.25c.555 0 1.027-.194 1.416-.583.39-.39.584-.861.584-1.417 0-.528-.195-.986-.584-1.375a1.929 1.929 0 0 0-1.416-.583c-.556 0-1.028.194-1.417.583-.389.39-.583.847-.583 1.375 0 .556.194 1.028.583 1.417.389.389.861.583 1.417.583Zm-.084-5.958c.334 0 .64-.125.917-.375.278-.25.486-.584.625-1 .111-.361.299-.715.563-1.063a8.962 8.962 0 0 1 1.02-1.104c.778-.805 1.327-1.52 1.646-2.146.32-.625.48-1.34.48-2.146 0-1.388-.431-2.52-1.292-3.395s-2.084-1.313-3.667-1.313c-1.056 0-2.02.25-2.896.75a6.298 6.298 0 0 0-2.146 2c-.25.333-.291.695-.125 1.083.167.39.445.653.834.792.305.111.632.111.979 0 .347-.11.66-.333.937-.667.278-.388.611-.666 1-.833.39-.167.792-.25 1.209-.25.722 0 1.284.16 1.687.48.403.319.604.77.604 1.353 0 .445-.152.931-.458 1.459-.306.528-.806 1.153-1.5 1.875-.556.583-.98 1.097-1.27 1.541-.293.445-.48.959-.563 1.542-.056.39.062.722.354 1 .291.278.646.417 1.062.417Zm4.125 7.875v2.583c2.278-1.916 4.063-4.18 5.355-6.791 1.291-2.612 1.937-5.209 1.937-7.792 0-3.445-1.076-6.264-3.23-8.459-2.152-2.194-4.867-3.291-8.145-3.291-3.333 0-6.16 1.153-8.48 3.458C8.659 11.14 7.5 13.93 7.5 17.208c0 3.306 1.16 6.118 3.479 8.438 2.32 2.32 5.118 3.479 8.396 3.479h4.166Z" fill="#4318FF"/></svg>