<svg width="39" height="39" fill="none" xmlns="http://www.w3.org/2000/svg"><path d="M31.389 31.18H12.565c-.998 0-1.856-.354-2.573-1.06-.717-.705-1.076-1.549-1.076-2.531V5.553c0-.983.359-1.82 1.076-2.514A3.574 3.574 0 0 1 12.565 2h11.448c.487 0 .96.094 1.422.283a3.65 3.65 0 0 1 1.19.775l7.3 7.182c.307.327.563.718.768 1.171.205.454.307.92.307 1.399v14.779c0 .982-.358 1.826-1.076 2.532-.717.706-1.562 1.058-2.535 1.058Zm-7.76-25.627H12.565v22.036H31.39V13.037h-5.954c-.513 0-.942-.17-1.287-.51a1.705 1.705 0 0 1-.519-1.267V5.553ZM6.611 37c-.999 0-1.85-.346-2.555-1.04A3.392 3.392 0 0 1 3 33.448v-21.28c0-.504.173-.926.519-1.266.345-.34.774-.51 1.287-.51.512 0 .94.17 1.286.51.346.34.519.762.519 1.266v21.28h17.594c.513 0 .942.17 1.287.51.346.34.519.763.519 1.267 0 .504-.173.926-.519 1.266-.346.34-.774.51-1.287.51H6.611Zm5.954-31.447v7.484-7.484 22.036V5.553Z" fill="#4318FF"/></svg>