<svg width="39" height="36" fill="none" xmlns="http://www.w3.org/2000/svg"><g clip-path="url(#cubes-solid 1__a)"><path d="m11.653 2.824 6.5-2.56a3.678 3.678 0 0 1 2.694 0l6.5 2.56c1.47.58 2.445 2.045 2.445 3.681v7.888c.088.028.176.056.264.028l6.5 2.623C38.025 17.62 39 19.09 39 20.72v8.381c0 1.561-.887 2.975-2.268 3.6l-6.5 2.968c-.968.45-2.079.45-3.047 0L19.5 32.168l-7.685 3.502c-.968.45-2.079.45-3.047 0l-6.502-2.968C.889 32.078 0 30.663 0 29.102v-8.38c0-1.632.974-3.102 2.448-3.678l6.496-2.623c.088.028.176 0 .264-.028V6.505c0-1.636.975-3.101 2.445-3.681Zm8.037.596c-.122-.048-.319-.048-.38 0l-5.308 2.09L19.44 7.7l5.559-2.19-5.308-2.09Zm6.852 11.388v-6.3l-5.58 2.222v6.272l5.58-2.194Zm-16.06 2.834c-.123-.05-.319-.05-.38 0L4.794 19.73l5.498 2.186 5.498-2.186-5.309-2.088Zm1.272 14.371 5.58-2.545v-6.743l-5.58 2.222v7.066ZM23.21 19.73l5.498 2.186 5.498-2.186-5.308-2.088c-.122-.05-.318-.05-.38 0L23.21 19.73Zm12.54 9.372v-6.377l-5.58 2.222v7.066l5.255-2.397a.563.563 0 0 0 .325-.514Z" fill="#4318FF"/></g><defs><clipPath id="cubes-solid 1__a"><path fill="#fff" d="M0 0h39v36H0z"/></clipPath></defs></svg>