<svg width="234" height="35" viewBox="0 0 234 35" fill="none" xmlns="http://www.w3.org/2000/svg">
<path d="M0.498047 33.7217V0.72461H11.3053C14.804 0.72461 17.8431 1.43327 20.4226 2.8506C23.0318 4.2384 25.048 6.17245 26.4711 8.65277C27.8943 11.1036 28.6059 13.953 28.6059 17.201C28.6059 20.4195 27.8943 23.2837 26.4711 25.7935C25.048 28.2739 23.0318 30.2227 20.4226 31.64C17.8431 33.0278 14.804 33.7217 11.3053 33.7217H0.498047ZM6.54657 28.4067H11.4388C13.6921 28.4067 15.6342 27.9491 17.2649 27.0337C18.9253 26.0888 20.2151 24.7896 21.1342 23.1361C22.0533 21.453 22.5129 19.4746 22.5129 17.201C22.5129 14.8979 22.0533 12.9195 21.1342 11.266C20.2151 9.61242 18.9253 8.32797 17.2649 7.41261C15.6342 6.49726 13.6921 6.03958 11.4388 6.03958H6.54657V28.4067Z" fill="white"/>
<path d="M33.4196 33.7217V0.72461H39.4681V33.7217H33.4196Z" fill="white"/>
<path d="M57.6714 34.2532C55.5662 34.2532 53.6094 33.8693 51.8007 33.1016C50.0218 32.3339 48.48 31.2709 47.1754 29.9126C45.9005 28.5248 44.9665 26.9156 44.3735 25.0849L49.3991 22.9146C50.1997 24.8044 51.356 26.2955 52.8681 27.388C54.3803 28.451 56.0851 28.9825 57.9827 28.9825C59.0501 28.9825 59.9692 28.8201 60.7401 28.4953C61.5406 28.141 62.1485 27.6685 62.5636 27.078C63.0083 26.4874 63.2307 25.7788 63.2307 24.952C63.2307 23.9776 62.9342 23.1804 62.3412 22.5603C61.7778 21.9107 60.918 21.4087 59.7617 21.0544L53.4018 19.017C50.8223 18.2197 48.8802 17.0238 47.5757 15.4294C46.2711 13.8349 45.6188 11.9599 45.6188 9.80435C45.6188 7.91458 46.0784 6.24627 46.9975 4.79942C47.9463 3.35257 49.2509 2.23052 50.9112 1.43327C52.6013 0.606502 54.5285 0.193115 56.6929 0.193115C58.6795 0.193115 60.5029 0.547446 62.1633 1.25611C63.8237 1.93524 65.2468 2.89489 66.4328 4.13505C67.6485 5.34568 68.5528 6.77777 69.1458 8.43131L64.1646 10.6459C63.5123 8.99234 62.5339 7.72265 61.2293 6.83682C59.9247 5.92147 58.4126 5.46379 56.6929 5.46379C55.6848 5.46379 54.7954 5.64096 54.0245 5.99529C53.2536 6.32009 52.6458 6.79253 52.201 7.41261C51.7859 8.00317 51.5784 8.71183 51.5784 9.5386C51.5784 10.454 51.8749 11.266 52.4679 11.9746C53.0608 12.6538 53.9652 13.1853 55.1808 13.5691L61.2738 15.4736C63.9126 16.3299 65.8843 17.5111 67.1889 19.017C68.5231 20.5229 69.1903 22.3831 69.1903 24.5977C69.1903 26.4874 68.701 28.1558 67.7226 29.6026C66.7442 31.0495 65.3951 32.1863 63.6754 33.013C61.9557 33.8398 59.9544 34.2532 57.6714 34.2532Z" fill="white"/>
<path d="M90.2027 34.2532C87.8307 34.2532 85.6367 33.825 83.6205 32.9687C81.634 32.1124 79.8846 30.9166 78.3725 29.3811C76.89 27.8457 75.7337 26.0445 74.9035 23.9776C74.0733 21.9107 73.6582 19.6518 73.6582 17.201C73.6582 14.7502 74.0585 12.4914 74.859 10.4244C75.6892 8.32797 76.8455 6.52679 78.328 5.02088C79.8402 3.48544 81.6043 2.30434 83.6205 1.47756C85.6367 0.621265 87.8307 0.193115 90.2027 0.193115C92.5747 0.193115 94.6946 0.591738 96.5625 1.38898C98.4601 2.18623 100.061 3.24922 101.366 4.57796C102.67 5.87718 103.604 7.30927 104.168 8.87423L98.7418 11.3988C98.1192 9.74529 97.0666 8.38702 95.5841 7.32403C94.1016 6.23151 92.3078 5.68525 90.2027 5.68525C88.1272 5.68525 86.2889 6.17245 84.6879 7.14686C83.1164 8.12127 81.886 9.46478 80.9965 11.1774C80.1366 12.89 79.7067 14.8979 79.7067 17.201C79.7067 19.5042 80.1366 21.5268 80.9965 23.2689C81.886 24.9815 83.1164 26.325 84.6879 27.2995C86.2889 28.2739 88.1272 28.7611 90.2027 28.7611C92.3078 28.7611 94.1016 28.2296 95.5841 27.1666C97.0666 26.0741 98.1192 24.701 98.7418 23.0475L104.168 25.5721C103.604 27.137 102.67 28.5839 101.366 29.9126C100.061 31.2119 98.4601 32.2601 96.5625 33.0573C94.6946 33.8546 92.5747 34.2532 90.2027 34.2532Z" fill="white"/>
<path d="M125.4 34.2532C122.969 34.2532 120.701 33.825 118.596 32.9687C116.491 32.1124 114.652 30.9166 113.081 29.3811C111.51 27.8457 110.279 26.0445 109.39 23.9776C108.53 21.8811 108.1 19.6223 108.1 17.201C108.1 14.7502 108.53 12.4914 109.39 10.4244C110.249 8.3575 111.465 6.55631 113.037 5.02088C114.608 3.48544 116.446 2.30434 118.551 1.47756C120.656 0.621265 122.939 0.193115 125.4 0.193115C127.861 0.193115 130.144 0.621265 132.249 1.47756C134.355 2.33386 136.193 3.52973 137.764 5.06517C139.336 6.57108 140.551 8.3575 141.411 10.4244C142.301 12.4914 142.745 14.7502 142.745 17.201C142.745 19.6223 142.301 21.8811 141.411 23.9776C140.522 26.0445 139.291 27.8457 137.72 29.3811C136.148 30.9166 134.31 32.1124 132.205 32.9687C130.13 33.825 127.861 34.2532 125.4 34.2532ZM125.4 28.7611C127.031 28.7611 128.528 28.4806 129.892 27.9195C131.256 27.329 132.442 26.517 133.45 25.4835C134.488 24.45 135.274 23.2246 135.807 21.8073C136.371 20.39 136.652 18.8546 136.652 17.201C136.652 15.5475 136.371 14.0268 135.807 12.639C135.274 11.2217 134.488 9.99628 133.45 8.96281C132.442 7.89982 131.256 7.08781 129.892 6.52678C128.528 5.96576 127.031 5.68525 125.4 5.68525C123.799 5.68525 122.317 5.96576 120.953 6.52678C119.589 7.08781 118.388 7.89982 117.351 8.96281C116.342 9.99628 115.557 11.2217 114.993 12.639C114.43 14.0268 114.148 15.5475 114.148 17.201C114.148 18.8546 114.43 20.39 114.993 21.8073C115.557 23.2246 116.342 24.45 117.351 25.4835C118.388 26.517 119.589 27.329 120.953 27.9195C122.317 28.4806 123.799 28.7611 125.4 28.7611Z" fill="white"/>
<path d="M160.888 34.2532C158.338 34.2532 156.07 33.7217 154.083 32.6587C152.126 31.5957 150.585 30.1341 149.458 28.2739C148.331 26.4136 147.768 24.3024 147.768 21.9402V0.72461H153.816V21.6302C153.816 22.9884 154.113 24.2138 154.706 25.3063C155.329 26.3989 156.174 27.2552 157.241 27.8752C158.308 28.4658 159.524 28.7611 160.888 28.7611C162.281 28.7611 163.497 28.4658 164.535 27.8752C165.602 27.2552 166.432 26.3989 167.025 25.3063C167.648 24.2138 167.959 22.9884 167.959 21.6302V0.72461H174.008V21.9402C174.008 24.3024 173.445 26.4136 172.318 28.2739C171.191 30.1341 169.635 31.5957 167.648 32.6587C165.691 33.7217 163.438 34.2532 160.888 34.2532Z" fill="white"/>
<path d="M180.046 33.7217V0.72461H184.761L202.995 25.1735L200.549 25.6607V0.72461H206.598V33.7217H201.839L183.871 9.09568L186.095 8.60848V33.7217H180.046Z" fill="white"/>
<path d="M218.882 33.7217V6.03958H210.298V0.72461H233.425V6.03958H224.975V33.7217H218.882Z" fill="white"/>
</svg>
