<svg width="234" height="81" viewBox="0 0 234 81" fill="none" xmlns="http://www.w3.org/2000/svg">
<path d="M27.5698 80.206C23.4585 80.206 19.4866 79.4411 15.654 77.9114C11.8215 76.3122 8.5464 74.0871 5.82878 71.2363C3.11115 68.3159 1.33424 64.8393 0.498047 60.8064L14.8178 56.0086C15.8631 59.3462 17.5355 61.7798 19.835 63.3096C22.1345 64.8393 24.7128 65.6041 27.5698 65.6041C30.0087 65.6041 32.134 65.1174 33.9458 64.144C35.7575 63.101 37.1512 61.6755 38.1267 59.8677C39.172 57.9903 39.6946 55.8348 39.6946 53.4011C39.6946 50.9675 39.172 48.8467 38.1267 47.0389C37.1512 45.231 35.7575 43.8404 33.9458 42.8669C32.134 41.8239 30.0087 41.3024 27.5698 41.3024C25.0612 41.3024 22.8314 41.8587 20.8802 42.9712C18.9291 44.0142 17.5006 45.6482 16.5948 47.8733L3.3202 44.7443L9.59164 1.25159H53.0737V14.8105H16.1767L22.2391 7.50953L17.9536 39.8423L13.5636 35.9832C15.3056 33.1323 17.5006 31.0464 20.1486 29.7252C22.8662 28.4041 26.3503 27.7436 30.601 27.7436C35.8272 27.7436 40.3217 28.8561 44.0846 31.0811C47.8475 33.2366 50.7393 36.2266 52.7601 40.0509C54.8506 43.8752 55.8958 48.3253 55.8958 53.4011C55.8958 58.477 54.6415 63.0662 52.1329 67.1686C49.6941 71.2015 46.3493 74.4 42.0986 76.7641C37.848 79.0587 33.005 80.206 27.5698 80.206Z" fill="white"/>
<path d="M95.4329 80.206C89.2311 80.206 83.761 78.5372 79.0226 75.1997C74.3538 71.8621 70.6955 67.1686 68.0476 61.1193C65.3996 55.0699 64.0756 48.0471 64.0756 40.0509C64.0756 31.9851 65.3648 24.9623 67.943 18.9824C70.591 13.0026 74.2493 8.34393 78.9181 5.00635C83.6565 1.66879 89.1266 0 95.3283 0C101.669 0 107.174 1.66879 111.843 5.00635C116.582 8.34393 120.24 13.0374 122.818 19.0867C125.466 25.0666 126.79 32.0546 126.79 40.0509C126.79 48.0471 125.466 55.0699 122.818 61.1193C120.24 67.0991 116.582 71.7925 111.843 75.1997C107.174 78.5372 101.704 80.206 95.4329 80.206ZM95.5374 65.6041C98.7428 65.6041 101.46 64.5959 103.69 62.5795C105.92 60.563 107.627 57.6426 108.812 53.8183C109.997 49.994 110.589 45.4049 110.589 40.0509C110.589 34.6968 109.997 30.1424 108.812 26.3877C107.627 22.5634 105.885 19.643 103.586 17.6266C101.356 15.6101 98.6034 14.6019 95.3283 14.6019C92.1229 14.6019 89.4053 15.6101 87.1755 17.6266C84.9456 19.643 83.2384 22.5634 82.0538 26.3877C80.8692 30.1424 80.2769 34.6968 80.2769 40.0509C80.2769 45.3353 80.8692 49.8897 82.0538 53.714C83.2384 57.5383 84.9456 60.4935 87.1755 62.5795C89.475 64.5959 92.2623 65.6041 95.5374 65.6041Z" fill="white"/>
<path d="M146.461 78.9544L209.385 1.25159H225.481L162.558 78.9544H146.461ZM158.899 40.6767C154.997 40.6767 151.478 39.7727 148.342 37.9649C145.276 36.0875 142.838 33.6191 141.026 30.5596C139.214 27.5002 138.308 24.0931 138.308 20.3383C138.308 16.5836 139.214 13.1765 141.026 10.117C142.838 6.98804 145.276 4.51963 148.342 2.71178C151.478 0.903926 154.997 0 158.899 0C162.802 0 166.286 0.903926 169.352 2.71178C172.418 4.51963 174.857 6.98804 176.668 10.117C178.48 13.1765 179.386 16.5836 179.386 20.3383C179.386 24.0931 178.48 27.5002 176.668 30.5596C174.857 33.6191 172.418 36.0875 169.352 37.9649C166.286 39.7727 162.802 40.6767 158.899 40.6767ZM158.899 29.2037C160.781 29.2037 162.349 28.7866 163.603 27.9522C164.857 27.0482 165.798 25.9357 166.425 24.6146C167.052 23.2239 167.366 21.7985 167.366 20.3383C167.366 18.8086 167.052 17.3832 166.425 16.0621C165.798 14.7409 164.857 13.6632 163.603 12.8288C162.349 11.9249 160.781 11.4729 158.899 11.4729C157.018 11.4729 155.45 11.9249 154.196 12.8288C152.942 13.6632 151.966 14.7409 151.269 16.0621C150.642 17.3832 150.328 18.8086 150.328 20.3383C150.328 21.7985 150.642 23.2239 151.269 24.6146C151.966 25.9357 152.942 27.0482 154.196 27.9522C155.45 28.7866 157.018 29.2037 158.899 29.2037ZM212.938 80.206C209.036 80.206 205.517 79.3021 202.381 77.4942C199.315 75.6169 196.876 73.1484 195.065 70.089C193.253 67.0296 192.347 63.6225 192.347 59.8677C192.347 56.1129 193.253 52.7058 195.065 49.6464C196.876 46.5174 199.315 44.049 202.381 42.2411C205.517 40.4333 209.036 39.5294 212.938 39.5294C216.841 39.5294 220.325 40.4333 223.391 42.2411C226.457 44.049 228.896 46.5174 230.707 49.6464C232.519 52.7058 233.425 56.1129 233.425 59.8677C233.425 63.6225 232.519 67.0296 230.707 70.089C228.896 73.1484 226.457 75.6169 223.391 77.4942C220.325 79.3021 216.841 80.206 212.938 80.206ZM212.938 68.7331C214.82 68.7331 216.388 68.3159 217.642 67.4815C218.896 66.5776 219.837 65.4651 220.464 64.144C221.091 62.7533 221.405 61.3279 221.405 59.8677C221.405 58.338 221.091 56.9125 220.464 55.5914C219.837 54.2703 218.896 53.1925 217.642 52.3581C216.388 51.4542 214.82 51.0023 212.938 51.0023C211.127 51.0023 209.559 51.4542 208.235 52.3581C206.98 53.1925 206.005 54.2703 205.308 55.5914C204.681 56.9125 204.367 58.338 204.367 59.8677C204.367 61.3279 204.681 62.7533 205.308 64.144C206.005 65.4651 206.98 66.5776 208.235 67.4815C209.559 68.3159 211.127 68.7331 212.938 68.7331Z" fill="white"/>
</svg>
