<svg width="255" height="55" viewBox="0 0 255 55" fill="none" xmlns="http://www.w3.org/2000/svg">
<path d="M0 54.2532V0.41626H37.0675V10.1719H11.2656V23.8299H33.4334V33.5856H11.2656V54.2532H0Z" fill="white"/>
<path d="M42.6577 54.2532V0.41626H63.3719C67.1028 0.41626 70.3977 1.06664 73.2565 2.3674C76.1638 3.66815 78.4411 5.5952 80.0886 8.14854C81.736 10.7019 82.5597 13.8574 82.5597 17.6152C82.5597 21.2766 81.7118 24.408 80.0159 27.0095C78.32 29.5629 76.0426 31.4899 73.1838 32.7907L85.5397 54.2532H72.8931L59.5197 30.4782L66.7879 34.7418H53.9233V54.2532H42.6577ZM53.9233 24.9861H63.4445C65.0435 24.9861 66.4245 24.673 67.5874 24.0467C68.7503 23.4204 69.6467 22.5532 70.2766 21.4452C70.9549 20.3371 71.2941 19.0605 71.2941 17.6152C71.2941 16.1217 70.9549 14.8209 70.2766 13.7129C69.6467 12.6048 68.7503 11.7377 67.5874 11.1114C66.4245 10.4851 65.0435 10.1719 63.4445 10.1719H53.9233V24.9861Z" fill="white"/>
<path d="M91.1355 54.2532V0.41626H102.401V54.2532H91.1355Z" fill="white"/>
<path d="M112.003 54.2532V0.41626H129.665C135.528 0.41626 140.615 1.57249 144.928 3.88495C149.24 6.19741 152.583 9.37704 154.958 13.4238C157.332 17.4706 158.519 22.0956 158.519 27.2986C158.519 32.5016 157.332 37.1506 154.958 41.2456C152.583 45.2924 149.24 48.472 144.928 50.7845C140.615 53.0969 135.528 54.2532 129.665 54.2532H112.003ZM123.269 44.4975H129.955C133.492 44.4975 136.545 43.7989 139.113 42.4018C141.681 40.9565 143.668 38.9572 145.073 36.4039C146.527 33.8024 147.253 30.7673 147.253 27.2986C147.253 23.7817 146.527 20.7466 145.073 18.1933C143.668 15.6399 141.681 13.6647 139.113 12.2676C136.545 10.8705 133.492 10.1719 129.955 10.1719H123.269V44.4975Z" fill="white"/>
<path d="M159.535 54.2532L177.851 0.41626H192.824L211.139 54.2532H198.856L195.222 43.269H175.38L171.746 54.2532H159.535ZM178.505 33.5133H192.097L183.811 8.07628H186.864L178.505 33.5133Z" fill="white"/>
<path d="M225.683 54.2532V30.7673L207.658 0.41626H220.523L233.606 23.2518H229.027L242.037 0.41626H254.901L236.949 30.695V54.2532H225.683Z" fill="white"/>
</svg>
