<svg width="40" height="20" fill="none" xmlns="http://www.w3.org/2000/svg"><path d="M9.281 19.381c-2.587 0-4.76-.93-6.52-2.79-1.76-1.86-2.64-4.084-2.64-6.67 0-2.56.887-4.75 2.66-6.571C4.554 1.53 6.721.619 9.281.619c1.04 0 2.04.171 3 .514.96.343 1.827.871 2.6 1.584l3.36 3.166-2.72 2.573-3.04-2.929a3.75 3.75 0 0 0-1.48-.91 5.457 5.457 0 0 0-1.72-.278c-1.52 0-2.8.548-3.84 1.643s-1.56 2.408-1.56 3.939c0 1.583.52 2.936 1.56 4.057 1.04 1.122 2.32 1.682 3.84 1.682.587 0 1.153-.092 1.7-.277a4.413 4.413 0 0 0 1.5-.87l12.64-11.796a7.129 7.129 0 0 1 2.58-1.584 8.904 8.904 0 0 1 2.98-.514c2.56 0 4.733.91 6.52 2.73 1.787 1.822 2.68 4.012 2.68 6.572 0 2.586-.887 4.81-2.66 6.67-1.773 1.86-3.953 2.79-6.54 2.79a9.407 9.407 0 0 1-3-.495 6.53 6.53 0 0 1-2.56-1.563l-3.24-3.167 2.68-2.573 2.96 2.93c.4.395.88.685 1.44.87.56.185 1.133.277 1.72.277 1.547 0 2.84-.56 3.88-1.682 1.04-1.121 1.56-2.474 1.56-4.057 0-1.53-.527-2.844-1.58-3.939-1.053-1.095-2.34-1.643-3.86-1.643a4.68 4.68 0 0 0-1.7.317 4.522 4.522 0 0 0-1.46.91l-12.64 11.796a7.048 7.048 0 0 1-2.62 1.544 9.576 9.576 0 0 1-2.98.475Z" fill="#fff"/></svg>