<svg width="24" height="24" viewBox="0 0 24 24" fill="none" xmlns="http://www.w3.org/2000/svg">
<g clip-path="url(#clip0_3670_76596)">
<path d="M24 0H0V24H24V0Z" fill="#1B2559"/>
<g clip-path="url(#clip1_3670_76596)">
<mask id="mask0_3670_76596" style="mask-type:alpha" maskUnits="userSpaceOnUse" x="0" y="0" width="24" height="24">
<path d="M12 24C18.6274 24 24 18.6274 24 12C24 5.37258 18.6274 0 12 0C5.37258 0 0 5.37258 0 12C0 18.6274 5.37258 24 12 24Z" fill="white"/>
</mask>
<g mask="url(#mask0_3670_76596)">
<path d="M19.9346 21.0026L9.21913 7.19995H7.2002V16.796H8.81534V9.2511L18.6667 21.9793C19.1113 21.6818 19.5347 21.3553 19.9346 21.0026Z" fill="url(#paint0_linear_3670_76596)"/>
<path d="M16.9335 7.19995H15.3335V16.8H16.9335V7.19995Z" fill="url(#paint1_linear_3670_76596)"/>
</g>
</g>
</g>
<defs>
<linearGradient id="paint0_linear_3670_76596" x1="14.2847" y1="15.5333" x2="18.5373" y2="20.8041" gradientUnits="userSpaceOnUse">
<stop stop-color="white"/>
<stop offset="1" stop-color="white" stop-opacity="0"/>
</linearGradient>
<linearGradient id="paint1_linear_3670_76596" x1="16.1335" y1="7.19995" x2="16.1067" y2="14.2499" gradientUnits="userSpaceOnUse">
<stop stop-color="white"/>
<stop offset="1" stop-color="white" stop-opacity="0"/>
</linearGradient>
<clipPath id="clip0_3670_76596">
<rect width="24" height="24" rx="4.61647" fill="white"/>
</clipPath>
<clipPath id="clip1_3670_76596">
<rect width="24" height="24" fill="white"/>
</clipPath>
</defs>
</svg>
